Coordinates
version=1
nRows=14
nColumns=33
inDegrees=yes

Units are S.I. units (second, meters, Newtons, ...)
Angles are in degrees.

endheader
time	ground_thorax_rot_x	ground_thorax_rot_y	ground_thorax_rot_z	ground_thorax_tx	ground_thorax_ty	ground_thorax_tz	clav_prot_r	clav_elev_r	scapula_abduction_r	scapula_elevation_r	scapula_upward_rot_r	scapula_winging_r	shoulder_elv_r	plane_of_elev_r	axial_rot_r	elbow_flexion_r	pro_sup_r	wrist_flex_r	wrist_dev_r	clav_prot_l	clav_elev_l	scapula_abduction_l	scapula_elevation_l	scapula_upward_rot_l	scapula_winging_l	shoulder_elv_l	plane_of_elev_l	axial_rot_l	elbow_flexion_l	pro_sup_l	wrist_flex_l	wrist_dev_l
      2.36000000	      0.95338298	      6.09243109	     -1.78850434	     -0.16332205	      1.00524865	      0.00522693	    -18.85248523	    -14.88321065	    -24.92551753	     -9.64873990	      6.04321900	      5.95635080	     48.33612070	    -27.12407613	     31.87687419	     67.30743655	      9.30197828	     -1.45243819	     23.40841241	      1.67711849	     -8.02836665	     -4.23655812	     -2.80757503	    -10.32700079	     -1.09011766	     51.36885833	    -23.08042639	     -9.48371783	     72.09513165	      5.51833888	     18.39584873	      8.20437804
      2.37000000	      0.97012019	      6.11286517	     -1.55686459	     -0.16343014	      1.00539609	      0.00517716	    -18.55329612	    -15.27747441	    -24.43090018	     -9.97167328	      5.94412290	      6.20974687	     48.21790688	    -26.69554978	     31.88266481	     65.64118953	      9.40002998	     -1.84425492	     23.60435455	      1.91477957	     -8.42767917	     -4.68946048	     -2.45215608	    -10.35155998	     -1.06086693	     51.46741165	    -22.50503646	     -9.70955732	     70.58223923	      5.69599715	     18.57051527	      8.49725440
      2.38000000	      0.94413293	      6.25931953	     -1.94226021	     -0.16314144	      1.00531187	      0.00509999	    -18.49653355	    -15.59628549	    -24.37936904	    -10.22235788	      5.79718702	      6.42872712	     47.50436848	    -25.50660604	     30.87118516	     63.60749136	      9.06599762	     -2.40404748	     24.33073147	      2.05378633	     -8.73080878	     -4.91528026	     -2.23712166	    -10.50085054	     -1.09509022	     51.60986744	    -20.90010819	     -9.15953586	     68.72515443	      5.90681269	     19.08480633	      8.92938340
      2.39000000	      0.81077182	      6.47377891	     -1.75253662	     -0.16357147	      1.00420737	      0.00498159	    -18.36148800	    -15.26947031	    -24.22211898	     -9.88289360	      5.74035786	      6.23981696	     46.59677552	    -24.00235917	     30.38935651	     61.33042326	      8.37737823	     -2.94378604	     25.76302631	      2.45549410	     -8.38326633	     -5.37185355	     -2.88401650	    -11.26063336	     -0.90514665	     52.11479421	    -18.74079346	     -9.16494846	     66.80795022	      6.30221204	     20.45135619	      9.27240226
      2.40000000	      0.82058977	      6.48988079	     -1.41868091	     -0.16358344	      1.00461543	      0.00503591	    -18.06980510	    -15.68675815	    -23.75704931	    -10.21834515	      5.60844304	      6.51049282	     46.52491191	    -23.71267300	     30.49239985	     59.64693831	      8.56025378	     -3.28222348	     25.80997972	      2.68350663	     -8.88808894	     -5.80202018	     -2.44156038	    -11.30956811	     -0.91528363	     52.19458020	    -18.29377109	     -9.31869809	     64.96120574	      6.55886863	     20.57618966	      9.56470760
      2.41000000	      0.73566818	      6.70713951	     -1.62449325	     -0.16361378	      1.00390744	      0.00489942	    -18.03274184	    -15.60636381	    -23.74839157	    -10.11052313	      5.52519454	      6.47538812	     45.66535856	    -22.09856748	     29.83082692	     57.20418041	      8.19158364	     -3.35040857	     26.48549903	      2.98501504	     -8.82972642	     -6.15571131	     -2.76195538	    -11.93033454	     -0.83030581	     52.68939492	    -16.10215348	     -9.02758687	     62.78866993	      7.13046275	     21.59373330	      9.43524331
      2.42000000	      0.77327609	      6.71873272	     -1.35171716	     -0.16356506	      1.00435931	      0.00492754	    -17.73852100	    -16.04265053	    -23.26776437	    -10.47126303	      5.41179294	      6.75583991	     45.63300968	    -21.80568400	     29.94283706	     55.50015937	      8.40954773	     -3.66101011	     26.48965483	      3.22076425	     -9.37479273	     -6.60065675	     -2.27502529	    -11.96133933	     -0.84634286	     52.74132116	    -15.63901340	     -9.18520950	     60.81695026	      7.42688924	     21.68723258	      9.70974254
      2.43000000	      0.71381917	      6.94264362	     -1.52444305	     -0.16350280	      1.00369458	      0.00477766	    -17.71525540	    -15.91954057	    -23.28194352	    -10.32665122	      5.33768317	      6.69203991	     44.83979082	    -20.20475405	     29.41790207	     53.01419639	      8.29862269	     -3.29844483	     26.81359809	      3.49209264	     -9.29121779	     -6.92723016	     -2.58269096	    -12.49588840	     -0.74951367	     53.08359275	    -13.45296682	     -8.95889699	     58.38766539	      8.18813003	     22.38249171	      9.11570325
      2.44000000	      0.81198023	      7.01442130	     -1.63238606	     -0.16321491	      1.00401432	      0.00475453	    -17.50607619	    -16.34718742	    -22.92240134	    -10.70059669	      5.26814140	      6.96171825	     44.76304574	    -19.61604458	     29.27672603	     51.25433238	      8.53135359	     -3.43657374	     26.73385208	      3.71317714	     -9.87203565	     -7.33689667	     -2.06963636	    -12.54238544	     -0.79169757	     53.17506571	    -12.56059671	     -8.87552739	     56.21653369	      8.66862349	     22.48207688	      9.16814520
      2.45000000	      0.82653759	      7.11415796	     -1.73766493	     -0.16303881	      1.00399765	      0.00467076	    -17.32259790	    -16.58539587	    -22.64127752	    -10.88565859	      5.17297096	      7.12115721	     44.43840010	    -18.72656380	     28.98333608	     49.23326529	      8.73705824	     -3.33926834	     26.66432755	      3.95006387	    -10.17369962	     -7.74755842	     -1.82520530	    -12.61361421	     -0.74837969	     53.25094990	    -11.33562266	     -8.87909551	     53.91463580	      9.25028550	     22.58916993	      8.92443393
      2.46000000	      0.81354095	      7.08000312	     -1.44654051	     -0.16295302	      1.00429389	      0.00463505	    -16.99178033	    -16.94720490	    -22.10679227	    -11.17813812	      5.06595300	      7.35461888	     44.38065987	    -18.42509887	     29.18586912	     47.50378524	      9.00877951	     -3.57395320	     26.64244497	      4.22929603	    -10.59264062	     -8.25093487	     -1.44784996	    -12.62246867	     -0.70639664	     53.28117838	    -10.90561984	     -9.23162090	     51.95796865	      9.60185700	     22.65036592	      9.07531043
      2.47000000	      0.70448658	      7.32156617	     -1.46280578	     -0.16292634	      1.00343088	      0.00440614	    -16.94062527	    -16.62296957	    -22.11180547	    -10.82381108	      4.95559630	      7.16420294	     43.52644323	    -16.86444218	     28.66963481	     45.00167313	      9.43801644	     -2.53025291	     26.27335226	      4.47748596	    -10.15515335	     -8.59025811	     -1.97494027	    -12.90313640	     -0.45226457	     53.13091031	     -8.57627068	     -9.19899991	     49.08067636	     10.77824811	     22.47264790	      7.53071006
      2.48000000	      0.78815312	      7.27404470	     -1.43996720	     -0.16273496	      1.00379720	      0.00440158	    -16.62971970	    -17.08494178	    -21.56721931	    -11.23613311	      4.91090802	      7.44768306	     43.59226658	    -16.54893853	     28.80333892	     43.44022092	      9.75837239	     -2.78366435	     26.17937269	      4.75544971	    -10.70670734	     -9.11271556	     -1.44482937	    -12.84019757	     -0.43952667	     53.15769807	     -8.10230504	     -9.45397890	     47.12475365	     11.18121170	     22.47840561	      7.68616738
      2.49000000	      0.73600706	      7.47842475	     -1.51680842	     -0.16244221	      1.00343868	      0.00421433	    -16.56946025	    -17.02339823	    -21.55198486	    -11.12117544	      4.76109855	      7.43020566	     43.06518567	    -15.41223886	     28.33536024	     41.42503140	     10.60206088	     -1.89043156	     25.40581241	      4.99135151	    -10.58494619	     -9.49438349	     -1.59820232	    -12.92758198	     -0.26017922	     52.92714031	     -6.30398387	     -9.36888640	     44.34726173	     12.63495929	     21.90254786	      6.05514091
